<svg width="32" height="33" viewBox="0 0 32 33" fill="none" xmlns="http://www.w3.org/2000/svg">
<g id="CaretDown">
<path id="Vector" d="M28.7076 13.0831L18.7076 23.0831C18.6147 23.176 18.5044 23.2498 18.383 23.3001C18.2616 23.3504 18.1315 23.3763 18.0001 23.3763C17.8687 23.3763 17.7385 23.3504 17.6171 23.3001C17.4957 23.2498 17.3854 23.176 17.2926 23.0831L7.29257 13.0831C7.10493 12.8954 6.99951 12.6409 6.99951 12.3756C6.99951 12.1102 7.10493 11.8557 7.29257 11.6681C7.48021 11.4804 7.7347 11.375 8.00007 11.375C8.26543 11.375 8.51993 11.4804 8.70757 11.6681L18.0001 20.9618L27.2926 11.6681C27.3855 11.5751 27.4958 11.5014 27.6172 11.4512C27.7386 11.4009 27.8687 11.375 28.0001 11.375C28.1315 11.375 28.2616 11.4009 28.383 11.4512C28.5044 11.5014 28.6147 11.5751 28.7076 11.6681C28.8005 11.761 28.8742 11.8713 28.9245 11.9927C28.9747 12.1141 29.0006 12.2442 29.0006 12.3756C29.0006 12.507 28.9747 12.6371 28.9245 12.7585C28.8742 12.8798 28.8005 12.9901 28.7076 13.0831Z" fill="#0070DF"/>
</g>
</svg>
