<svg width="25" height="25" viewBox="0 0 25 25" fill="none" xmlns="http://www.w3.org/2000/svg">
<g id="check_circle">
<mask id="mask0_305_37" style="mask-type:alpha" maskUnits="userSpaceOnUse" x="0" y="0" width="25" height="25">
<rect id="Bounding box" x="0.487305" y="0.364471" width="24" height="24" fill="#D9D9D9"/>
</mask>
<g mask="url(#mask0_305_37)">
<path id="check_circle_2" d="M11.0873 16.9645L18.1373 9.91447L16.7373 8.51447L11.0873 14.1645L8.2373 11.3145L6.8373 12.7145L11.0873 16.9645ZM12.4873 22.3645C11.104 22.3645 9.80397 22.102 8.5873 21.577C7.37064 21.052 6.3123 20.3395 5.4123 19.4395C4.5123 18.5395 3.7998 17.4811 3.2748 16.2645C2.7498 15.0478 2.4873 13.7478 2.4873 12.3645C2.4873 10.9811 2.7498 9.68114 3.2748 8.46447C3.7998 7.2478 4.5123 6.18947 5.4123 5.28947C6.3123 4.38947 7.37064 3.67697 8.5873 3.15197C9.80397 2.62697 11.104 2.36447 12.4873 2.36447C13.8706 2.36447 15.1706 2.62697 16.3873 3.15197C17.604 3.67697 18.6623 4.38947 19.5623 5.28947C20.4623 6.18947 21.1748 7.2478 21.6998 8.46447C22.2248 9.68114 22.4873 10.9811 22.4873 12.3645C22.4873 13.7478 22.2248 15.0478 21.6998 16.2645C21.1748 17.4811 20.4623 18.5395 19.5623 19.4395C18.6623 20.3395 17.604 21.052 16.3873 21.577C15.1706 22.102 13.8706 22.3645 12.4873 22.3645Z" fill="#0070DF"/>
</g>
</g>
</svg>
