<svg width="33" height="33" viewBox="0 0 33 33" fill="none" xmlns="http://www.w3.org/2000/svg">
<g id="DownloadSimple">
<path id="Vector" d="M28.002 19.2466V26.2466C28.002 26.777 27.7912 27.2857 27.4162 27.6608C27.0411 28.0359 26.5324 28.2466 26.002 28.2466H6.00195C5.47152 28.2466 4.96281 28.0359 4.58774 27.6608C4.21267 27.2857 4.00195 26.777 4.00195 26.2466V19.2466C4.00195 18.9814 4.10731 18.727 4.29485 18.5395C4.48238 18.3519 4.73674 18.2466 5.00195 18.2466C5.26717 18.2466 5.52152 18.3519 5.70906 18.5395C5.8966 18.727 6.00195 18.9814 6.00195 19.2466V26.2466H26.002V19.2466C26.002 18.9814 26.1073 18.727 26.2948 18.5395C26.4824 18.3519 26.7367 18.2466 27.002 18.2466C27.2672 18.2466 27.5215 18.3519 27.7091 18.5395C27.8966 18.727 28.002 18.9814 28.002 19.2466ZM15.2945 19.9541C15.3873 20.0471 15.4976 20.1208 15.619 20.1711C15.7404 20.2215 15.8705 20.2474 16.002 20.2474C16.1334 20.2474 16.2635 20.2215 16.3849 20.1711C16.5063 20.1208 16.6166 20.0471 16.7095 19.9541L21.7095 14.9541C21.8024 14.8612 21.8761 14.7509 21.9263 14.6295C21.9766 14.5081 22.0025 14.378 22.0025 14.2466C22.0025 14.1152 21.9766 13.9851 21.9263 13.8637C21.8761 13.7423 21.8024 13.632 21.7095 13.5391C21.6165 13.4462 21.5062 13.3725 21.3848 13.3222C21.2635 13.2719 21.1333 13.246 21.002 13.246C20.8706 13.246 20.7404 13.2719 20.6191 13.3222C20.4977 13.3725 20.3874 13.4462 20.2945 13.5391L17.002 16.8328V5.24658C17.002 4.98137 16.8966 4.72701 16.7091 4.53948C16.5215 4.35194 16.2672 4.24658 16.002 4.24658C15.7367 4.24658 15.4824 4.35194 15.2948 4.53948C15.1073 4.72701 15.002 4.98137 15.002 5.24658V16.8328L11.7095 13.5391C11.5218 13.3514 11.2673 13.246 11.002 13.246C10.7366 13.246 10.4821 13.3514 10.2945 13.5391C10.1068 13.7267 10.0014 13.9812 10.0014 14.2466C10.0014 14.5119 10.1068 14.7664 10.2945 14.9541L15.2945 19.9541Z" fill="#0070DF"/>
</g>
</svg>
