<svg width="25" height="24" viewBox="0 0 25 24" fill="none" xmlns="http://www.w3.org/2000/svg">
<g id="EnvelopeSimple">
<path id="Vector" d="M21.4795 4.5H3.47949C3.28058 4.5 3.08981 4.57902 2.94916 4.71967C2.80851 4.86032 2.72949 5.05109 2.72949 5.25V18C2.72949 18.3978 2.88753 18.7794 3.16883 19.0607C3.45014 19.342 3.83167 19.5 4.22949 19.5H20.7295C21.1273 19.5 21.5088 19.342 21.7902 19.0607C22.0715 18.7794 22.2295 18.3978 22.2295 18V5.25C22.2295 5.05109 22.1505 4.86032 22.0098 4.71967C21.8692 4.57902 21.6784 4.5 21.4795 4.5ZM19.5511 6L12.4795 12.4828L5.40793 6H19.5511ZM20.7295 18H4.22949V6.95531L11.9723 14.0531C12.1107 14.1801 12.2917 14.2506 12.4795 14.2506C12.6673 14.2506 12.8483 14.1801 12.9867 14.0531L20.7295 6.95531V18Z" fill="#8E8E8E"/>
</g>
</svg>
