<svg width="49" height="49" viewBox="0 0 49 49" fill="none" xmlns="http://www.w3.org/2000/svg">
<g id="ic:baseline-whatsapp">
<path id="Vector" d="M38.5166 9.92756C36.6629 8.05515 34.455 6.57057 32.0215 5.5604C29.5881 4.55023 26.9779 4.0347 24.3432 4.04388C13.3037 4.04388 4.30628 13.0413 4.30628 24.0808C4.30628 27.619 5.23635 31.0563 6.97517 34.0891L4.14453 44.4816L14.7594 41.6914C17.6912 43.2887 20.9868 44.1378 24.3432 44.1378C35.3826 44.1378 44.38 35.1405 44.38 24.101C44.38 18.743 42.2975 13.7085 38.5166 9.92756ZM24.3432 40.7411C21.3508 40.7411 18.419 39.9323 15.8512 38.4159L15.2447 38.052L8.9364 39.7099L10.6146 33.5634L10.2102 32.9366C8.54768 30.2818 7.66491 27.2131 7.66261 24.0808C7.66261 14.9014 15.1436 7.42043 24.3229 7.42043C28.7711 7.42043 32.9564 9.15925 36.0903 12.3134C37.6421 13.858 38.8718 15.6953 39.7082 17.7187C40.5447 19.7422 40.9712 21.9115 40.963 24.101C41.0035 33.2803 33.5225 40.7411 24.3432 40.7411ZM33.4821 28.2863C32.9766 28.0436 30.5099 26.8305 30.0651 26.6485C29.6 26.4868 29.2766 26.4059 28.9328 26.8912C28.5891 27.3966 27.6388 28.5289 27.3558 28.8524C27.0727 29.1961 26.7694 29.2366 26.2639 28.9737C25.7585 28.7311 24.141 28.1852 22.2404 26.4868C20.7442 25.1524 19.7535 23.5146 19.4502 23.0092C19.1671 22.5037 19.4098 22.2408 19.6726 21.978C19.895 21.7556 20.1781 21.3916 20.4207 21.1086C20.6633 20.8255 20.7644 20.6031 20.9262 20.2796C21.0879 19.9359 21.007 19.6528 20.8857 19.4102C20.7644 19.1676 19.7535 16.7009 19.3491 15.6899C18.9447 14.7194 18.5201 14.8407 18.2168 14.8205H17.2463C16.9026 14.8205 16.3769 14.9418 15.9119 15.4473C15.4671 15.9528 14.1731 17.1659 14.1731 19.6326C14.1731 22.0993 15.9726 24.4851 16.2152 24.8086C16.4578 25.1524 19.7535 30.2071 24.7677 32.3705C25.9607 32.8962 26.8907 33.1994 27.6186 33.4219C28.8115 33.806 29.9033 33.7454 30.7727 33.624C31.7432 33.4825 33.7449 32.4109 34.1493 31.2382C34.5739 30.0655 34.5739 29.0748 34.4324 28.8524C34.2908 28.63 33.9875 28.5289 33.4821 28.2863Z" fill="#11A61F"/>
</g>
</svg>
