<svg width="37" height="28" viewBox="0 0 37 28" fill="none" xmlns="http://www.w3.org/2000/svg">
<g id="logos:google-gmail" clip-path="url(#clip0_132_302)">
<path id="Vector" d="M8.84924 26.9048V13.2323L4.60898 9.35312L0.806641 7.20044V24.492C0.806641 25.827 1.8883 26.9048 3.21947 26.9048H8.84924Z" fill="#4285F4"/>
<path id="Vector_2" d="M28.1514 26.9044H33.7811C35.1163 26.9044 36.194 25.8226 36.194 24.4916V7.2002L31.8872 9.66583L28.1514 13.2319V26.9044Z" fill="#34A853"/>
<path id="Vector_3" d="M8.84944 13.2326L8.27246 7.89039L8.84944 2.77734L18.5005 10.0157L28.1516 2.77734L28.797 7.61435L28.1516 13.2326L18.5005 20.471L8.84944 13.2326Z" fill="#EA4335"/>
<path id="Vector_4" d="M28.1514 2.77699V13.2323L36.194 7.2004V3.98333C36.194 0.999604 32.7879 -0.701337 30.4034 1.08807L28.1514 2.77699Z" fill="#FBBC04"/>
<path id="Vector_5" d="M0.806641 7.20046L4.50558 9.97477L8.84924 13.2323V2.77705L6.59717 1.08814C4.20852 -0.701412 0.806641 0.999667 0.806641 3.98326V7.20032V7.20046Z" fill="#C5221F"/>
</g>
<defs>
<clipPath id="clip0_132_302">
<rect width="35.3873" height="26.6787" fill="white" transform="translate(0.806641 0.357422)"/>
</clipPath>
</defs>
</svg>
