<svg width="25" height="24" viewBox="0 0 25 24" fill="none" xmlns="http://www.w3.org/2000/svg">
<g id="User">
<path id="Vector" d="M22.1284 19.8751C20.7006 17.4067 18.5002 15.6367 15.9324 14.7976C17.2026 14.0415 18.1894 12.8893 18.7414 11.518C19.2933 10.1468 19.3799 8.63224 18.9878 7.20701C18.5957 5.78178 17.7466 4.52467 16.5709 3.62873C15.3951 2.73279 13.9578 2.24756 12.4796 2.24756C11.0014 2.24756 9.56412 2.73279 8.3884 3.62873C7.21267 4.52467 6.36356 5.78178 5.97144 7.20701C5.57933 8.63224 5.6659 10.1468 6.21786 11.518C6.76982 12.8893 7.75666 14.0415 9.02681 14.7976C6.459 15.6357 4.25869 17.4057 2.83087 19.8751C2.77851 19.9605 2.74378 20.0555 2.72873 20.1545C2.71368 20.2535 2.71861 20.3545 2.74324 20.4516C2.76787 20.5487 2.81169 20.6399 2.87212 20.7197C2.93255 20.7996 3.00836 20.8666 3.09508 20.9167C3.18181 20.9667 3.27769 20.999 3.37707 21.0114C3.47645 21.0238 3.57731 21.0163 3.67371 20.9891C3.7701 20.9619 3.86008 20.9157 3.93833 20.8532C4.01658 20.7907 4.08152 20.7131 4.12931 20.6251C5.89556 17.5726 9.01744 15.7501 12.4796 15.7501C15.9418 15.7501 19.0637 17.5726 20.8299 20.6251C20.8777 20.7131 20.9427 20.7907 21.0209 20.8532C21.0992 20.9157 21.1891 20.9619 21.2855 20.9891C21.3819 21.0163 21.4828 21.0238 21.5822 21.0114C21.6816 20.999 21.7774 20.9667 21.8642 20.9167C21.9509 20.8666 22.0267 20.7996 22.0871 20.7197C22.1476 20.6399 22.1914 20.5487 22.216 20.4516C22.2406 20.3545 22.2456 20.2535 22.2305 20.1545C22.2155 20.0555 22.1807 19.9605 22.1284 19.8751ZM7.22962 9.00011C7.22962 7.96176 7.53753 6.94672 8.11441 6.08337C8.69129 5.22001 9.51122 4.5471 10.4705 4.14974C11.4298 3.75238 12.4854 3.64841 13.5038 3.85099C14.5222 4.05356 15.4577 4.55357 16.1919 5.2878C16.9262 6.02202 17.4262 6.95748 17.6287 7.97589C17.8313 8.99429 17.7274 10.0499 17.33 11.0092C16.9326 11.9685 16.2597 12.7884 15.3964 13.3653C14.533 13.9422 13.518 14.2501 12.4796 14.2501C11.0877 14.2486 9.7532 13.695 8.76896 12.7108C7.78471 11.7265 7.23111 10.392 7.22962 9.00011Z" fill="#8E8E8E"/>
</g>
</svg>
