<svg width="25" height="24" viewBox="0 0 25 24" fill="none" xmlns="http://www.w3.org/2000/svg">
<g id="WhatsappLogo">
<path id="Vector" d="M18.0653 13.5787L15.0653 12.0787C14.9472 12.0199 14.8157 11.9933 14.684 12.0015C14.5523 12.0097 14.4251 12.0525 14.3153 12.1256L12.9381 13.0444C12.3059 12.6968 11.7856 12.1766 11.4381 11.5444L12.3569 10.1672C12.4299 10.0573 12.4728 9.93016 12.481 9.79848C12.4892 9.6668 12.4626 9.53528 12.4037 9.41719L10.9037 6.41719C10.8416 6.29163 10.7455 6.186 10.6263 6.11226C10.5072 6.03853 10.3698 5.99964 10.2297 6C9.23511 6 8.28128 6.39509 7.57802 7.09835C6.87476 7.80161 6.47967 8.75544 6.47967 9.75C6.48215 11.9373 7.35214 14.0343 8.89878 15.5809C10.4454 17.1275 12.5424 17.9975 14.7297 18C15.2221 18 15.7098 17.903 16.1647 17.7145C16.6197 17.5261 17.0331 17.2499 17.3813 16.9017C17.7295 16.5534 18.0058 16.14 18.1942 15.6851C18.3827 15.2301 18.4797 14.7425 18.4797 14.25C18.4798 14.1107 18.4411 13.9741 18.3679 13.8555C18.2947 13.7369 18.1899 13.6411 18.0653 13.5787ZM14.7297 16.5C12.9401 16.498 11.2243 15.7862 9.95889 14.5208C8.69345 13.2553 7.98165 11.5396 7.97967 9.75C7.97952 9.2298 8.15963 8.72562 8.48935 8.32326C8.81907 7.9209 9.27802 7.64521 9.7881 7.54313L10.8644 9.69938L9.94842 11.0625C9.87997 11.1652 9.83792 11.2831 9.82598 11.406C9.81404 11.5288 9.83259 11.6526 9.87998 11.7666C10.4166 13.0419 11.4312 14.0565 12.7065 14.5931C12.8208 14.6426 12.9456 14.6629 13.0697 14.6521C13.1937 14.6413 13.3132 14.5998 13.4172 14.5312L14.7869 13.6181L16.9431 14.6944C16.8402 15.205 16.5633 15.6642 16.1597 15.9935C15.756 16.3228 15.2506 16.5018 14.7297 16.5ZM12.4797 2.25C10.7964 2.24963 9.14162 2.68508 7.67653 3.51396C6.21144 4.34285 4.9859 5.53692 4.1192 6.97997C3.25251 8.42301 2.77418 10.0659 2.73078 11.7486C2.68738 13.4314 3.08039 15.0967 3.87154 16.5825L2.80748 19.7747C2.71934 20.039 2.70655 20.3226 2.77054 20.5938C2.83453 20.8649 2.97278 21.1129 3.16978 21.3099C3.36678 21.5069 3.61476 21.6451 3.88591 21.7091C4.15707 21.7731 4.44069 21.7603 4.70498 21.6722L7.89717 20.6081C9.20476 21.3036 10.6536 21.6921 12.1338 21.744C13.6139 21.7959 15.0864 21.51 16.4395 20.9079C17.7927 20.3057 18.9908 19.4033 19.9431 18.269C20.8954 17.1346 21.5767 15.7983 21.9354 14.3613C22.2941 12.9244 22.3207 11.4246 22.0132 9.97578C21.7057 8.52701 21.0722 7.16732 20.1608 5.99992C19.2494 4.83253 18.084 3.88811 16.7531 3.23836C15.4222 2.58861 13.9607 2.25061 12.4797 2.25ZM12.4797 20.25C11.0293 20.251 9.60445 19.8691 8.34904 19.1428C8.25713 19.0895 8.15493 19.0563 8.04923 19.0455C7.94353 19.0347 7.83673 19.0464 7.73592 19.08L4.22967 20.25L5.39873 16.7438C5.43243 16.643 5.44434 16.5362 5.43367 16.4305C5.42301 16.3248 5.39 16.2226 5.33685 16.1306C4.42745 14.5584 4.06233 12.7299 4.29813 10.929C4.53393 9.12801 5.35747 7.4552 6.641 6.17006C7.92453 4.88491 9.59629 4.05925 11.3969 3.82118C13.1976 3.5831 15.0265 3.94591 16.5999 4.85333C18.1733 5.76074 19.4033 7.16204 20.0991 8.83983C20.7948 10.5176 20.9174 12.3781 20.4479 14.1327C19.9783 15.8873 18.9429 17.4379 17.5022 18.5439C16.0615 19.65 14.296 20.2497 12.4797 20.25Z" fill="#8E8E8E"/>
</g>
</svg>
